<?xml version="1.0" encoding="UTF-8" standalone="no"?><!DOCTYPE svg PUBLIC "-//W3C//DTD SVG 1.1//EN" "http://www.w3.org/Graphics/SVG/1.1/DTD/svg11.dtd"><svg width="100%" height="100%" viewBox="0 0 1831 250" version="1.1" xmlns="http://www.w3.org/2000/svg" xmlns:xlink="http://www.w3.org/1999/xlink" xml:space="preserve" xmlns:serif="http://www.serif.com/" style="fill-rule:evenodd;clip-rule:evenodd;stroke-linejoin:round;stroke-miterlimit:2;"><path d="M989.012,39.919l19.868,0l0,166.077l-19.868,0l0,-166.077Zm93.031,0l24.894,0l-70.241,79.24l74.682,86.837l-25.595,0l-74.098,-85.201l70.358,-80.876Z" style="fill:#41415d;fill-rule:nonzero;"/><path d="M1154.62,205.996l0,-166.077l97.356,0l0,17.531l-77.487,0l0,54.229l71.059,0l0,17.531l-71.059,0l0,59.255l77.487,0l0,17.531l-97.356,0Z" style="fill:#41415d;fill-rule:nonzero;"/><path d="M1304.57,39.919l28.05,0l53.294,100.745l54.112,-100.745l26.297,0l0,166.077l-19.868,0l0,-137.56l-51.074,89.992l-19.869,0l-51.073,-89.992l0,137.56l-19.869,0l0,-166.077Z" style="fill:#41415d;fill-rule:nonzero;"/><path d="M1594.18,38.165c10.986,0 21.251,1.929 30.796,5.786c9.545,3.857 17.804,9.291 24.777,16.304c6.973,7.012 12.447,15.758 16.421,26.238c3.973,10.479 5.96,21.991 5.96,34.536c0,16.985 -3.37,32.082 -10.109,45.288c-6.74,13.207 -16.09,23.414 -28.05,30.621c-11.96,7.207 -25.498,10.811 -40.613,10.811c-9.974,0 -19.518,-1.773 -28.634,-5.318c-9.117,-3.545 -17.337,-8.707 -24.661,-15.486c-7.324,-6.778 -13.168,-15.641 -17.531,-26.588c-4.363,-10.947 -6.545,-23.278 -6.545,-36.991c0,-12.856 1.987,-24.621 5.961,-35.296c3.974,-10.674 9.428,-19.654 16.362,-26.939c6.935,-7.285 15.194,-12.934 24.777,-16.947c9.584,-4.012 19.947,-6.019 31.089,-6.019Zm-1.052,17.415c-7.091,0 -13.908,1.324 -20.453,3.973c-6.545,2.649 -12.564,6.526 -18.057,11.629c-5.493,5.104 -9.895,11.96 -13.207,20.57c-3.311,8.61 -4.967,18.33 -4.967,29.16c0,10.363 1.52,19.927 4.558,28.692c3.039,8.766 7.168,16.109 12.389,22.031c5.22,5.922 11.395,10.519 18.524,13.791c7.13,3.273 14.785,4.909 22.966,4.909c5.532,0 10.967,-0.818 16.304,-2.455c5.337,-1.636 10.46,-4.226 15.369,-7.772c4.908,-3.545 9.213,-7.889 12.914,-13.031c3.701,-5.142 6.662,-11.493 8.883,-19.05c2.22,-7.558 3.33,-15.856 3.33,-24.894c0,-9.195 -1.168,-17.609 -3.506,-25.245c-2.337,-7.636 -5.434,-14.025 -9.291,-19.167c-3.857,-5.143 -8.337,-9.487 -13.441,-13.032c-5.103,-3.545 -10.362,-6.116 -15.778,-7.713c-5.415,-1.598 -10.927,-2.396 -16.537,-2.396Z" style="fill:#41415d;fill-rule:nonzero;"/><path d="M1783.87,38.399c12.779,0 26.531,2.221 41.257,6.662l-6.428,18.115c-14.025,-4.051 -26.18,-6.077 -36.465,-6.077c-11.531,0 -21.29,2.435 -29.277,7.305c-7.986,4.869 -11.979,11.161 -11.979,18.875c0,4.285 1.285,8.103 3.857,11.453c2.571,3.351 5.96,6.078 10.168,8.181c4.207,2.104 8.999,4.188 14.375,6.253c5.376,2.065 10.85,3.954 16.421,5.669c5.571,1.714 11.044,3.895 16.421,6.544c5.376,2.65 10.168,5.552 14.375,8.708c4.207,3.155 7.597,7.265 10.168,12.33c2.571,5.064 3.857,10.791 3.857,17.18c0,4.441 -0.701,8.863 -2.104,13.265c-1.402,4.402 -3.74,8.766 -7.012,13.09c-3.273,4.324 -7.324,8.123 -12.155,11.395c-4.831,3.273 -10.928,5.922 -18.291,7.948c-7.363,2.025 -15.564,3.038 -24.602,3.038c-9.038,0 -17.355,-0.935 -24.952,-2.805c-7.597,-1.87 -16.109,-4.675 -25.537,-8.415l6.779,-19.284c19.478,7.246 34.867,10.87 46.165,10.87c11.843,0 21.485,-2.377 28.926,-7.13c7.441,-4.753 11.161,-11.103 11.161,-19.05c0,-5.298 -1.655,-9.876 -4.967,-13.733c-3.311,-3.857 -7.597,-6.973 -12.856,-9.35c-5.259,-2.376 -11.083,-4.597 -17.473,-6.661c-6.389,-2.065 -12.758,-4.286 -19.108,-6.662c-6.351,-2.377 -12.155,-5.123 -17.415,-8.24c-5.259,-3.116 -9.544,-7.324 -12.856,-12.622c-3.311,-5.298 -4.967,-11.532 -4.967,-18.7c0,-6.389 1.539,-12.505 4.617,-18.349c3.077,-5.844 7.343,-10.967 12.797,-15.369c5.454,-4.402 12.272,-7.908 20.453,-10.519c8.181,-2.61 17.064,-3.915 26.647,-3.915Z" style="fill:#41415d;fill-rule:nonzero;"/><path d="M611.839,169.293c0,23.479 19.063,42.542 42.542,42.542l144.683,0c23.48,0 42.542,-19.063 42.542,-42.542l0,-85.084c0,-23.48 -19.062,-42.542 -42.542,-42.542l-144.683,0c-23.479,0 -42.542,19.062 -42.542,42.542l0,85.084Z" style="fill:#b4d0fd;"/><path d="M305.92,168.488c0,23.332 18.942,42.274 42.273,42.274l145.22,0c23.331,0 42.274,-18.942 42.274,-42.274l0,-84.548c0,-23.331 -18.943,-42.273 -42.274,-42.273l-145.22,0c-23.331,0 -42.273,18.942 -42.273,42.273l0,84.548Z" style="fill:#b1ecb5;"/><path d="M0,169.293c0,23.479 19.062,42.542 42.542,42.542l144.683,0c23.48,0 42.542,-19.063 42.542,-42.542l0,-85.084c0,-23.48 -19.062,-42.542 -42.542,-42.542l-144.683,0c-23.48,0 -42.542,19.062 -42.542,42.542l0,85.084Z" style="fill:#ff7f7f;"/><path d="M921.256,250l-14.273,0l1.626,-250l15.026,0l-2.379,250Z" style="fill:#fe6361;fill-rule:nonzero;"/></svg>