<?xml version="1.0" encoding="UTF-8" standalone="no"?><!DOCTYPE svg PUBLIC "-//W3C//DTD SVG 1.1//EN" "http://www.w3.org/Graphics/SVG/1.1/DTD/svg11.dtd"><svg width="40px" height="40px" viewBox="0 0 1024 1024" version="1.1" xmlns="http://www.w3.org/2000/svg" xmlnsXlink="http://www.w3.org/1999/xlink" xmlSpace="preserve" xmlnsSerif="http://www.serif.com/" style="fill-rule:evenodd;clip-rule:evenodd;stroke-linejoin:round;stroke-miterlimit:1.41421;"><path d="M73.074,197.638c0,-27.615 9.329,-49.072 27.987,-64.372c18.659,-15.299 44.407,-22.949 77.246,-22.949l0,383.988l408.617,-383.988c12.688,10.448 23.136,21.457 31.346,33.025c8.21,11.568 12.314,21.83 12.314,30.786c0,18.658 -11.195,38.436 -33.585,59.334l-261.962,246.289l338.088,405.259c-8.209,8.956 -17.725,16.046 -28.547,21.271c-10.822,5.224 -21.457,7.836 -31.906,7.836c-29.107,0 -52.616,-10.448 -70.528,-31.346l-283.233,-335.85l-80.604,75.007l0,208.227c0,28.36 -8.583,49.444 -25.749,63.252c-17.165,13.807 -43.66,20.71 -79.484,20.71l0,-716.479Z" style="fill:#41415d;fill-rule:nonzero;"/><circle cx="811.212" cy="479.879" r="105.176" style="fill:#fe6361;"/></svg>